<svg xmlns="http://www.w3.org/2000/svg" width="256" height="256"><path d="M218.133 230.3h-1.048v-5.62h1.048a16.96 16.96 0 009.684-3.012l3.195 4.623a22.53 22.53 0 01-12.879 4.01zm-14.097 0h-13.053v-5.62h13.053v5.62zm-26.1 0h-13.052v-5.62h13.052v5.62zm-26.099 0h-13.05v-5.62h13.053v5.62zm-26.1 0h-13.049v-5.62h13.05v5.62zm-26.098 0h-13.05v-5.62h13.05v5.62zm140.092-15.755l-5.35-1.711c.534-1.675.806-3.423.806-5.204 0-1.99-.34-3.943-1.011-5.8l5.285-1.911a22.63 22.63 0 011.346 7.71 22.798 22.798 0 01-1.076 6.916zm-12.44-21.303a16.997 16.997 0 00-9.158-2.663h-1.781v-5.62h1.781a22.6 22.6 0 0112.182 3.549l-3.024 4.734zm-23.989-2.666h-13.05v-5.62h13.05v5.62zm-26.099 0h-12.386c-.259 0-.515-.003-.765-.014l.208-5.615.557.009h12.386v5.62zm-26.821-5.187a22.788 22.788 0 01-7.677-12.449l5.482-1.245a17.148 17.148 0 005.774 9.363l-3.58 4.33zm-1.051-24.636l-5.098-2.36a22.878 22.878 0 0110.088-10.588l2.608 4.976a17.206 17.206 0 00-7.598 7.972zm32.022-9.9h-13.052v-5.62h13.052v5.62zM60.68 79.716c-32.736 0-59.273 26.535-59.273 59.271 0 14.615 5.313 27.97 14.08 38.306l45.19 53.224 45.191-53.224c8.768-10.335 14.081-23.691 14.081-38.306.003-32.736-26.535-59.271-59.268-59.271zm0 81.608c-13.462 0-24.376-10.914-24.376-24.377s10.914-24.377 24.377-24.377 24.376 10.914 24.376 24.377c-.002 13.463-10.914 24.377-24.376 24.377zM208.158 34.07c-25.332 0-45.868 20.536-45.868 45.868 0 11.31 4.111 21.645 10.898 29.642l34.97 41.187 34.97-41.187c6.787-7.997 10.898-18.332 10.898-29.642 0-25.332-20.536-45.868-45.868-45.868zm0 63.152c-10.417 0-18.864-8.447-18.864-18.864 0-10.416 8.444-18.863 18.864-18.863 10.417 0 18.863 8.447 18.863 18.863 0 10.42-8.444 18.864-18.863 18.864z"/></svg>