<svg xmlns="http://www.w3.org/2000/svg" width="256" height="256"><g stroke-width="0" stroke-miterlimit="10"><path d="M66.742 52.487a2.811 2.811 0 01-2.81-2.81V22.864a2.811 2.811 0 015.62 0v26.813a2.811 2.811 0 01-2.81 2.81zm14.811 0a2.811 2.811 0 01-2.81-2.81V22.864a2.811 2.811 0 015.62 0v26.813a2.81 2.81 0 01-2.81 2.81z"/><path d="M81.553 39.08H66.742a2.811 2.811 0 010-5.62h14.811a2.811 2.811 0 010 5.62zm20.589 13.407h-1.424c-5.241 0-9.504-4.263-9.504-9.504V29.56c0-5.24 4.263-9.503 9.504-9.503h1.424c5.24 0 9.504 4.262 9.504 9.503v13.423c0 5.241-4.263 9.504-9.504 9.504zm-1.427-26.813a3.888 3.888 0 00-3.884 3.883v13.424a3.888 3.888 0 003.884 3.883h1.424a3.888 3.888 0 003.884-3.883V29.557a3.888 3.888 0 00-3.884-3.883h-1.424zm32.554 0h-14.815a2.811 2.811 0 010-5.62h14.815a2.81 2.81 0 110 5.62z"/><path d="M125.861 52.487a2.811 2.811 0 01-2.81-2.81V22.864a2.811 2.811 0 015.62 0v26.813a2.811 2.811 0 01-2.81 2.81zm33.779-26.813h-14.814a2.81 2.81 0 110-5.62h14.815a2.81 2.81 0 110 5.62z"/><path d="M144.823 52.487a2.81 2.81 0 01-2.81-2.81V22.864a2.81 2.81 0 115.62 0v26.813a2.81 2.81 0 01-2.81 2.81z"/><path d="M159.64 52.487h-14.814a2.81 2.81 0 110-5.62h14.815a2.81 2.81 0 110 5.62zm0-13.407h-14.814a2.81 2.81 0 110-5.62h14.815a2.81 2.81 0 110 5.62zm14.52 13.407a2.81 2.81 0 01-2.81-2.81V22.864a2.81 2.81 0 115.62 0v26.813a2.811 2.811 0 01-2.81 2.81z"/><path d="M188.971 52.487H174.16a2.81 2.81 0 110-5.62h14.811a2.81 2.81 0 110 5.62z"/><path d="M220.702 68.987H35.012a2.811 2.811 0 01-2.81-2.81v-48.02c0-9.236 7.513-16.75 16.75-16.75h157.81c9.236 0 16.75 7.514 16.75 16.75v48.02a2.81 2.81 0 01-2.81 2.81zm-182.88-5.62h180.07v-45.21c0-6.137-4.994-11.13-11.13-11.13H48.951c-6.14 0-11.13 4.993-11.13 11.13v45.21zM232.22 230.604H23.493a2.81 2.81 0 01-2.81-2.81V89.88a2.811 2.811 0 012.81-2.81H232.22a2.81 2.81 0 012.81 2.81v137.918a2.809 2.809 0 01-2.81 2.807zm-205.917-5.62H229.41V92.69H26.303v132.295z"/><path d="M244.685 254.307H11.025a2.81 2.81 0 01-2.81-2.81V237.96c0-7.154 5.82-12.974 12.977-12.974h213.33c7.154 0 12.973 5.82 12.973 12.974v13.536a2.807 2.807 0 01-2.81 2.81zm-230.85-5.62h228.04V237.96c0-4.055-3.299-7.354-7.354-7.354H21.191c-4.054 0-7.356 3.299-7.356 7.354v10.726zM234.521 92.69H21.191c-7.153 0-12.976-5.82-12.976-12.977V66.177a2.811 2.811 0 012.81-2.81h233.66a2.81 2.81 0 012.81 2.81v13.536c0 7.157-5.82 12.976-12.974 12.976zM13.835 68.986v10.726c0 4.055 3.3 7.356 7.357 7.356h213.33c4.054 0 7.353-3.298 7.353-7.356V68.987H13.835zm69.477 80.504h-28.83a2.81 2.81 0 01-2.81-2.81v-40.002a2.811 2.811 0 012.81-2.81h28.83a2.811 2.811 0 012.81 2.81v40.003a2.81 2.81 0 01-2.81 2.81zm-26.02-5.62h23.21v-34.382h-23.21v34.383zm143.939 5.62h-28.83a2.807 2.807 0 01-2.81-2.81v-40.002a2.81 2.81 0 012.81-2.81h28.83a2.81 2.81 0 012.81 2.81v40.003a2.807 2.807 0 01-2.81 2.81zm-26.017-5.62h23.21v-34.382h-23.21v34.383zm-32.942 5.62h-28.83a2.81 2.81 0 01-2.81-2.81v-40.002a2.811 2.811 0 012.81-2.81h28.83a2.81 2.81 0 012.81 2.81v40.003a2.807 2.807 0 01-2.81 2.81zm-26.02-5.62h23.21v-34.382h-23.21v34.383zm-32.94 68.77h-28.83a2.81 2.81 0 01-2.81-2.81v-40a2.81 2.81 0 012.81-2.81h28.83a2.81 2.81 0 012.81 2.81v40a2.81 2.81 0 01-2.81 2.81zm-26.02-5.62h23.21v-34.38h-23.21v34.38zm143.939 5.62h-28.83a2.807 2.807 0 01-2.81-2.81v-40a2.807 2.807 0 012.81-2.81h28.83a2.807 2.807 0 012.81 2.81v40a2.807 2.807 0 01-2.81 2.81zm-26.017-5.62h23.21v-34.38h-23.21v34.38z"/><path d="M142.272 230.604h-28.83a2.81 2.81 0 01-2.81-2.81V169.83a2.81 2.81 0 012.81-2.81h28.83a2.807 2.807 0 012.81 2.81v57.967a2.807 2.807 0 01-2.81 2.807zm-26.02-5.62h23.21V172.64h-23.21v52.344z"/></g></svg>