<svg width="82" height="81" fill="none" xmlns="http://www.w3.org/2000/svg"><path d="M25.73 29.293c5.087 13.878 10.353 19.417 23.75 25.313l-5.806 8.155C28.29 55.395 20.627 42.979 17.018 33.289l8.712-3.996z" fill="#000"/><path d="M29.997 10.134c2.72-.01 4.789 2.253 4.603 4.816-.291 4.033.02 6.944.856 10.55.46 1.982-.58 3.994-2.232 5.29-2.227 1.748-3.928 3.974-5.28 5.89-1.874 2.656-8.323 2.465-9.75-.428-2.93-5.947-4.917-16.903-.637-24.305.673-1.163 2.026-1.772 3.43-1.778l9.01-.035zM71.29 54.14c.338-2.549-1.793-4.76-4.51-4.895-4.274-.211-7.296-.852-10.987-2.07-2.027-.67-4.268.063-5.829 1.456-2.104 1.878-4.649 3.205-6.826 4.242-3.017 1.438-3.592 7.507-.722 9.192 5.899 3.463 17.176 6.643 25.472 3.52 1.303-.49 2.107-1.686 2.281-3l1.12-8.445z" fill="#000"/></svg>