<svg width="24" height="24" fill="none" xmlns="http://www.w3.org/2000/svg"><path d="M21.44 16.645a3.288 3.288 0 00-.075-.333c-.149-.533-.615-.938-1.186-1.033l-4.332-.721a1.503 1.503 0 00-1.432.549 3.99 3.99 0 00-.145.197c-.162.237-.432.326-.67.222a9.857 9.857 0 01-5.127-5.127c-.104-.24-.017-.507.218-.667.09-.061.175-.125.26-.193.418-.338.625-.878.541-1.411l-.67-4.255a1.489 1.489 0 00-1-1.191 3.589 3.589 0 00-.474-.12A4.035 4.035 0 004 3.493a4.283 4.283 0 00-1.497 3.376c.215 7.988 6.642 14.415 14.63 14.63.04.002.077.002.116.002 1.244 0 2.42-.54 3.242-1.49a4.068 4.068 0 00.95-3.365zm-1.708 2.714c-.65.752-1.583 1.18-2.574 1.142C9.7 20.3 3.701 14.3 3.501 6.843a3.284 3.284 0 011.15-2.59 3.057 3.057 0 011.993-.75 2.923 2.923 0 01.861.13.493.493 0 01.327.398l.671 4.255a.514.514 0 01-.182.477 2.497 2.497 0 01-.194.144c-.634.43-.869 1.209-.572 1.892a10.854 10.854 0 005.645 5.646c.682.295 1.461.06 1.896-.576a2.75 2.75 0 01.105-.143.501.501 0 01.481-.181l4.332.72c.19.033.342.157.387.317a3.065 3.065 0 01-.669 2.777z" fill="#fff"/></svg>