<svg xmlns="http://www.w3.org/2000/svg" width="256" height="256"><g stroke-width="0" stroke-miterlimit="10"><path d="M252.213 228.328c-8.868-5.167-17.801-7.666-26.734-7.533-12.968-14.61-36.37-25.456-64.018-30.407l20.643-77.042c5.044 2.99 9.663 7.623 13.875 13.996.14.214.31.4.495.562.025.023.053.037.079.057.047.039.1.067.149.1.193.138.396.248.612.332.065.026.127.054.194.073l.025.009c.023.005.037.022.06.028.008.003.019 0 .027.003.192.05.388.07.588.078.036.003.076.014.115.014.022 0 .042-.01.062-.01.011 0 .025-.006.036-.006.079-.003.155-.026.236-.034.172-.02.343-.037.512-.09.09-.028.168-.079.255-.115.048-.02.102-.017.15-.04 19.875-9.925 35.495-5.743 47.75 12.797.16.242.357.438.57.613.048.039.099.067.15.104.258.182.536.328.834.416.02.005.033.022.056.028.008.002.017 0 .025.002.228.06.464.093.703.093.283 0 .567-.05.845-.14.104-.034.192-.09.29-.135.138-.062.278-.104.407-.191.023-.014.034-.04.057-.056a2.79 2.79 0 00.722-.72c.028-.042.036-.093.062-.138.129-.216.25-.443.32-.7 4.732-17.649.767-36.459-11.161-52.962-11.802-16.329-30.025-28.465-51.311-34.167-21.286-5.707-43.13-4.305-61.52 3.934-18.526 8.304-31.336 22.55-36.102 40.124v.006c-.014.053-.034.107-.048.16-.037.135-.008.264-.025.399-.026.202-.06.402-.04.607.02.205.093.39.158.584.042.13.042.262.104.388.014.025.036.04.05.065.099.182.245.331.38.489.104.12.188.258.312.357.118.095.266.151.401.227.186.107.363.22.565.281.025.009.045.028.073.037.132.036.259.008.39.025.206.025.405.062.616.04.217-.023.41-.099.613-.166.118-.04.241-.04.36-.099 19.877-9.928 35.495-5.74 47.747 12.794.16.242.357.439.568.613.047.04.1.07.154.107.256.182.534.325.832.413.022.005.036.022.059.028.008.002.014 0 .022.002.124.031.25.04.377.054.72.292 1.545.312 2.293-.065 6.536-3.262 12.6-4.968 18.245-5.173l-21.125 78.846c-5.845-.531-11.8-.835-17.841-.835-41.729 0-79.939 13.09-97.973 33.408-8.93-.132-17.864 2.366-26.735 7.531a2.802 2.802 0 102.821 4.842c15.64-9.11 30.851-9.116 46.497 0 8.65 5.038 17.36 7.559 26.072 7.559 8.708 0 17.422-2.52 26.068-7.56 15.643-9.11 30.854-9.115 46.497 0 17.298 10.075 34.841 10.08 52.14 0 15.649-9.112 30.85-9.112 46.5 0a2.8 2.8 0 102.815-4.84zM150.471 107.4c9.979-32.846 27.243-51.701 37.966-48.838 10.653 2.855 16.192 27.58 8.588 60.755-12.384-15.463-28.005-19.476-46.554-11.917zm86.186-16.801c9.568 13.24 13.558 28.03 11.518 42.243-12.218-15.101-27.569-19.106-45.766-11.91 5.603-24.297 4.681-46.005-1.717-58.124 14.721 6.165 27.248 15.733 35.965 27.79zM99.563 93.024c5.339-13.33 16.19-24.144 31.098-30.826 13.572-6.086 29.207-8.107 45.036-6.084-11.608 7.292-23.25 25.63-30.545 49.476-12.156-15.326-27.45-19.535-45.59-12.566zm72.627 16.669c1.627.261 3.209.688 4.763 1.233l-21.047 78.551c-1.63-.242-3.254-.489-4.906-.688l21.19-79.096zm27.886 118.635c-15.648 9.116-30.856 9.113-46.502 0-17.293-10.074-34.836-10.077-52.137 0-15.646 9.119-30.854 9.113-46.497 0-6.084-3.543-12.198-5.814-18.321-6.865 18.034-17.424 52.853-28.47 90.886-28.47 38.034 0 72.852 11.046 90.887 28.473-6.12 1.051-12.235 3.319-18.316 6.862zM31.474 93.946a5.559 5.559 0 01-1.557-.222 5.557 5.557 0 01-3.684-3.53L23.61 82.52l-8.005.846a5.58 5.58 0 01-4.738-1.883 5.547 5.547 0 01-1.192-4.96l1.945-7.873-7.19-3.617a5.547 5.547 0 01-2.968-4.147 5.545 5.545 0 011.677-4.814L9.033 50.5l-4.094-6.93a5.556 5.556 0 01-.256-5.091 5.549 5.549 0 014.013-3.144l7.972-1.504.3-8.045a5.552 5.552 0 012.54-4.42 5.561 5.561 0 015.078-.475l7.517 3.046 4.606-6.603a5.553 5.553 0 014.527-2.347c1.798 0 3.492.88 4.53 2.35l4.675 6.625 7.441-3.068a5.535 5.535 0 015.078.475 5.552 5.552 0 012.54 4.42l.351 8.104 7.919 1.442a5.553 5.553 0 014.015 3.147 5.547 5.547 0 01-.256 5.091l-4.082 7.009 5.88 5.496a5.545 5.545 0 011.678 4.813 5.545 5.545 0 01-2.967 4.148l-7.222 3.687 1.976 7.803a5.549 5.549 0 01-1.192 4.96 5.579 5.579 0 01-4.737 1.882l-8.07-.803-2.558 7.635a5.541 5.541 0 01-8.688 2.548l-6.354-5.038-6.277 5.038a5.538 5.538 0 01-3.442 1.195zm-7.793-16.99a5.51 5.51 0 015.233 3.754l2.621 7.675 6.255-5.07a5.521 5.521 0 016.888 0l6.356 5.039 2.523-7.646a5.502 5.502 0 015.795-3.724l8.07.804-2.012-7.798a5.522 5.522 0 012.86-6.266l7.222-3.687-5.906-5.47a5.515 5.515 0 01-.978-6.82l4.088-7-7.927-1.411a5.512 5.512 0 01-4.51-5.207l-.351-8.101-7.432 3.1a5.518 5.518 0 01-6.61-1.942l-4.642-6.576-4.61 6.578a5.526 5.526 0 01-6.607 1.942l-7.52-3.049-.267 8.048a5.523 5.523 0 01-4.51 5.207l-7.969 1.5 4.128 6.916a5.519 5.519 0 01-.98 6.817l-5.893 5.572 7.21 3.586a5.52 5.52 0 012.86 6.266l-1.947 7.874 8.006-.883c.186-.02.374-.028.556-.028z"/><path d="M41.238 74.082c-10.815 0-19.616-8.798-19.616-19.617s8.798-19.617 19.616-19.617 19.617 8.799 19.617 19.617-8.801 19.617-19.617 19.617zm0-33.628c-7.724 0-14.01 6.286-14.01 14.011s6.286 14.01 14.01 14.01S55.25 62.19 55.25 54.466s-6.286-14.01-14.01-14.01z"/></g></svg>