<svg xmlns="http://www.w3.org/2000/svg" width="256" height="256"><g stroke-width="0" stroke-miterlimit="10"><path d="M33.05 95.193a5.559 5.559 0 01-1.557-.222 5.557 5.557 0 01-3.684-3.53l-2.621-7.673-8.006.846a5.58 5.58 0 01-4.738-1.883 5.547 5.547 0 01-1.191-4.96l1.944-7.873-7.19-3.617a5.547 5.547 0 01-2.968-4.147 5.545 5.545 0 011.678-4.814l5.892-5.572-4.094-6.93a5.556 5.556 0 01-.256-5.091 5.549 5.549 0 014.013-3.145l7.972-1.503.304-8.048a5.56 5.56 0 012.54-4.423 5.566 5.566 0 015.08-.475l7.517 3.046 4.606-6.603a5.553 5.553 0 014.527-2.347c1.798 0 3.492.88 4.53 2.35l4.675 6.625 7.441-3.068a5.535 5.535 0 015.078.475 5.552 5.552 0 012.54 4.42l.351 8.104 7.919 1.442a5.553 5.553 0 014.015 3.147 5.547 5.547 0 01-.255 5.091l-4.083 7.006 5.88 5.496a5.545 5.545 0 011.678 4.814 5.545 5.545 0 01-2.967 4.147l-7.222 3.687 1.976 7.803a5.549 5.549 0 01-1.192 4.96 5.579 5.579 0 01-4.737 1.883l-8.07-.804-2.558 7.635a5.541 5.541 0 01-8.688 2.548l-6.354-5.038-6.277 5.038a5.54 5.54 0 01-3.448 1.203zm-7.792-16.99a5.51 5.51 0 015.232 3.755l2.622 7.674 6.255-5.07a5.521 5.521 0 016.887 0l6.356 5.04 2.524-7.647a5.502 5.502 0 015.794-3.723l8.07.804-2.012-7.798a5.522 5.522 0 012.861-6.266l7.222-3.687-5.907-5.471a5.515 5.515 0 01-.978-6.82l4.083-7.005-7.927-1.411a5.512 5.512 0 01-4.51-5.207l-.351-8.101-7.433 3.1a5.518 5.518 0 01-6.609-1.942l-4.642-6.576-4.611 6.578a5.526 5.526 0 01-6.606 1.942l-7.514-3.043-.267 8.048a5.523 5.523 0 01-4.51 5.207l-7.97 1.5L15.445 49a5.519 5.519 0 01-.98 6.817l-5.893 5.572 7.21 3.585a5.52 5.52 0 012.861 6.267L16.7 79.114l8.005-.882c.183-.02.371-.028.554-.028z"/><path d="M42.815 75.326c-10.816 0-19.617-8.798-19.617-19.616s8.798-19.617 19.617-19.617S62.43 44.891 62.43 55.71s-8.8 19.616-19.616 19.616zm0-33.624c-7.725 0-14.01 6.286-14.01 14.01s6.285 14.011 14.01 14.011 14.01-6.286 14.01-14.01-6.286-14.011-14.01-14.011zM254.14 229.854c-8.893-5.179-17.851-7.685-26.807-7.553-10.58-11.923-28.088-21.342-49.189-27.117-6.699-31.008-5.072-58.178 5.581-92.55 13.525 8.762 27.05 26.35 29.868 40.801a2.811 2.811 0 002.74 2.274h.019a2.81 2.81 0 002.75-2.237c4.016-19.23.442-36.103-8.955-45.944 16.754 3.74 32.17 12.446 39.869 23.068a2.809 2.809 0 005.055-2.063c-1.987-13.404-6.539-24.54-13.193-32.618a68.82 68.82 0 017.559 4.366 2.809 2.809 0 004.114-3.496c-8.731-19.36-17.841-31.196-27.614-35.804 3.09-.543 6.008-.458 8.722.244a2.812 2.812 0 002.667-4.735c-19.207-18.69-30.126-20.145-47.849-4.86-2.477-9.187-6.592-15.53-12.496-19.32-7.424-4.766-17.523-5.502-30.86-2.242a2.81 2.81 0 00-.193 5.406c2.678.86 5.184 2.352 7.5 4.463-10.704-1.344-24.754 3.779-42.493 15.455a2.808 2.808 0 00-1.138 3.18 2.773 2.773 0 002.742 1.976 69.32 69.32 0 018.723.357c-9.945 3.262-19.755 10.231-28.606 20.487a2.81 2.81 0 003.167 4.446c12.296-4.898 30.168-3.94 46.43 2.009-13.2 3.305-25.26 15.657-32.142 33.987a2.809 2.809 0 004.67 2.92c10.56-11.165 32.133-18.988 48.276-18.614-14.06 31.006-14.28 58.825-14.485 93.652-6.37-.63-12.873-.995-19.482-.995-41.844 0-80.16 13.126-98.246 33.5-8.958-.131-17.914 2.373-26.81 7.554a2.81 2.81 0 102.83 4.856c15.688-9.144 30.94-9.138 46.626 0 8.674 5.052 17.408 7.576 26.141 7.576 8.734 0 17.47-2.524 26.142-7.576 15.688-9.144 30.938-9.144 46.629 0 17.349 10.107 34.945 10.102 52.286 0 15.682-9.135 30.932-9.141 46.626 0a2.81 2.81 0 003.841-1.015 2.804 2.804 0 00-1.014-3.838zM120.498 102.971c8.602-14.654 21.21-22.446 33.479-19.914a2.821 2.821 0 003.209-1.787 2.806 2.806 0 00-1.301-3.434c-16.27-8.83-36.213-12.434-52.022-9.922 10.476-9.49 21.792-14.216 32.554-13.415 1.439.076 2.638-.83 2.948-2.186a2.811 2.811 0 00-1.726-3.238c-4.94-1.916-10.265-3.175-15.91-3.768 17.498-10.16 30.421-12.524 38.477-7.028a2.797 2.797 0 003.513-.278 2.808 2.808 0 00.48-3.49c-2.644-4.4-5.67-7.89-9.037-10.439 7.941-1.003 14.129-.017 18.785 2.97 5.51 3.535 9.144 10.212 11.103 20.404a2.817 2.817 0 001.89 2.14 2.8 2.8 0 002.791-.62c15.63-14.626 23.497-16.076 37.789-3.861-4.181.362-8.573 1.689-13.128 3.973a2.811 2.811 0 00-1.464 3.206c.325 1.279 1.416 2.212 2.818 2.114 9.748-.422 19.395 8.584 28.735 26.534-5.086-2.523-10.254-4.31-15.455-5.336-1.346-.275-2.72.5-3.19 1.813a2.807 2.807 0 001.319 3.422c9.514 5.098 16.55 15.14 20.313 28.766-11.97-10.557-30.694-18.183-49.113-19.465-1.363-.081-2.653.849-2.945 2.22a2.806 2.806 0 001.79 3.223c11.928 4.345 18.51 17.774 17.872 34.976-8.248-17.371-25.95-34.745-40.782-38.342-2.063-.658-4.322-1.093-6.702-1.363-.078-.008-.152-.022-.23-.022-14.25-1.554-33.245 3.467-46.86 12.147zm33.692 86.978c.205-34.866.405-62.562 14.79-93.238 1.289.23 2.537.505 3.694.88.068.022.14.041.211.058 1.891.45 3.853 1.194 5.836 2.141-10.975 34.917-12.954 62.604-6.634 93.857a179.517 179.517 0 00-17.9-3.223l.003-.475zm47.672 39.905c-15.686 9.135-30.938 9.14-46.63 0-17.346-10.11-34.939-10.105-52.285 0-15.685 9.135-30.938 9.14-46.626 0-6.1-3.555-12.232-5.83-18.372-6.885 18.088-17.475 53.002-28.552 91.142-28.552 38.14 0 73.057 11.077 91.143 28.552-6.143 1.054-12.272 3.33-18.372 6.885z"/></g></svg>